<svg width="46" height="42" viewBox="0 0 46 42" fill="none" xmlns="http://www.w3.org/2000/svg">
<path d="M10.5179 0L35.7002 25.4835L40.1864 20.9435L43.1702 23.963L37.9433 29.2524L44.6727 36.0623C45.498 36.8975 45.498 38.2466 44.6727 39.0818L43.1702 40.6022C42.3449 41.4374 41.0117 41.4374 40.1864 40.6022L33.3724 33.8138L28.209 39.1032L25.2252 36.0837L29.7115 31.5438L4.52922 6.06035V0H10.5179ZM31.0235 16.1895L41.054 6.03894V0H35.0653L25.0347 10.1506L31.0235 16.1895ZM20.5485 26.8968L14.5598 20.7508L9.88309 25.4835L5.39685 20.9435L2.41307 23.963L7.63997 29.2524L0.910601 36.0837C0.085301 36.9189 0.085301 38.268 0.910601 39.1032L2.41307 40.6236C3.23837 41.4588 4.57155 41.4588 5.39685 40.6236L12.2109 33.8138L17.3743 39.1032L20.3581 36.0837L15.8718 31.5438L20.5485 26.8968Z" fill="white"/>
</svg>
