<svg width="56" height="42" viewBox="0 0 56 42" fill="none" xmlns="http://www.w3.org/2000/svg">
<path fill-rule="evenodd" clip-rule="evenodd" d="M18.7941 0.0212563C18.6404 -0.00279006 18.4842 -0.00645337 18.3295 0.0103627C15.2531 0.340798 10.5708 1.98934 7.80534 3.47812C7.62269 3.57701 7.45919 3.70733 7.32248 3.86302C6.17385 5.1666 5.13131 7.29083 4.31557 9.30248C3.47422 11.365 2.77919 13.5437 2.38778 15.1196C1.09283 20.2395 0.386829 26.3871 0.29172 32.2187C0.288694 32.5097 0.359119 32.7968 0.49657 33.0539C1.59398 35.1345 3.96074 37.0627 6.33115 38.4715C8.72717 39.8986 11.5256 41.0242 13.7789 41.2421C14.0489 41.2677 14.3212 41.2308 14.5744 41.1344C14.8277 41.0381 15.055 40.8848 15.2385 40.6865C15.8018 40.0801 16.7602 38.664 17.4845 37.5638C17.8137 37.0627 18.1247 36.5833 18.3661 36.2021C20.7877 36.6378 23.8239 36.892 27.6649 36.892C31.4985 36.892 34.5347 36.6378 36.9563 36.2021C37.1977 36.587 37.505 37.0627 37.8342 37.5601C38.5585 38.664 39.5169 40.0801 40.0839 40.6865C40.2675 40.8848 40.4947 41.0381 40.748 41.1344C41.0012 41.2308 41.2735 41.2677 41.5435 41.2421C43.7968 41.0242 46.5916 39.8986 48.9876 38.4715C51.358 37.0627 53.7248 35.1345 54.8258 33.0539C54.962 32.7965 55.0312 32.5094 55.027 32.2187C54.9356 26.3871 54.2259 20.2359 52.9383 15.116C52.4209 13.1386 51.7745 11.1966 51.0032 9.30248C50.1874 7.29083 49.1449 5.16297 47.9999 3.86302C47.8621 3.70699 47.6974 3.57665 47.5134 3.47812C44.7516 1.98934 40.0693 0.340798 36.9892 0.0103627C36.8358 -0.00613132 36.6808 -0.00246852 36.5283 0.0212563C35.8389 0.152961 35.1922 0.449605 34.6444 0.885471C33.4174 1.86601 32.4253 3.10507 31.7399 4.51299C30.3842 4.40744 29.0248 4.35535 27.6649 4.35685C26.1943 4.35685 24.8335 4.41132 23.5788 4.50936C22.893 3.10275 21.901 1.86496 20.6743 0.885471C20.1276 0.450137 19.4822 0.15352 18.7941 0.0212563ZM40.5339 35.287C41.0487 36.074 41.5767 36.8524 42.1178 37.6218C43.5664 37.295 45.4137 36.5325 47.1842 35.4795C49.1705 34.2993 50.7471 32.9377 51.508 31.7866C51.3873 26.3181 50.7069 20.6389 49.5326 15.962C49.0543 14.1404 48.458 12.3514 47.7475 10.6061C47.0159 8.79776 46.2294 7.26541 45.5454 6.38667C43.1676 5.16297 39.4182 3.87028 36.9746 3.51806C36.9011 3.56233 36.8302 3.61082 36.7624 3.6633C36.4593 3.90001 36.1822 4.16777 35.9357 4.46216C35.7915 4.63261 35.6536 4.80824 35.5223 4.98867C36.638 5.19202 37.633 5.43531 38.5146 5.70401C41.0167 6.46655 42.8201 7.51959 43.7017 8.68519C43.9811 9.055 44.1011 9.51984 44.0352 9.97745C43.9694 10.4351 43.7231 10.848 43.3506 11.1253C43.1661 11.2627 42.9562 11.3626 42.7328 11.4194C42.5094 11.4762 42.277 11.4888 42.0487 11.4564C41.5877 11.391 41.1718 11.1465 40.8923 10.7767C40.6765 10.4935 39.7364 9.7237 37.483 9.03378C35.3065 8.37291 32.1057 7.84276 27.6649 7.84276C23.224 7.84276 20.0195 8.37291 17.8467 9.03741C15.5933 9.72733 14.6532 10.4899 14.4374 10.7767C14.299 10.9598 14.1257 11.1141 13.9273 11.2307C13.7289 11.3473 13.5093 11.424 13.281 11.4564C12.82 11.5218 12.3517 11.4027 11.9792 11.1253C11.7947 10.988 11.6393 10.8159 11.5218 10.619C11.4043 10.422 11.3271 10.204 11.2945 9.97745C11.2286 9.51984 11.3486 9.055 11.628 8.68519C12.5096 7.51596 14.313 6.47019 16.8151 5.70764C17.693 5.43531 18.688 5.19565 19.8001 4.99231C19.6686 4.80989 19.5294 4.63302 19.383 4.46216C19.1377 4.16796 18.8618 3.90021 18.56 3.6633C18.491 3.61071 18.4189 3.56221 18.3442 3.51806C15.9043 3.87028 12.1548 5.16297 9.77703 6.38667C9.08931 7.26904 8.30649 8.79776 7.57123 10.6061C6.79206 12.5306 6.14459 14.5531 5.78976 15.962C4.61187 20.6389 3.93147 26.3181 3.81442 31.7866C4.57529 32.9413 6.14825 34.2993 8.13456 35.4831C9.90872 36.5361 11.7524 37.2987 13.2046 37.6218C13.7511 36.8561 14.2793 36.0776 14.7885 35.287C11.917 34.2739 10.3769 32.8832 9.37464 31.3944C9.24686 31.2037 9.15818 30.9898 9.11366 30.7651C9.06914 30.5403 9.06965 30.309 9.11517 30.0845C9.16068 29.8599 9.25031 29.6464 9.37894 29.4563C9.50756 29.2661 9.67267 29.1029 9.86482 28.9761C10.057 28.8492 10.2724 28.7612 10.4988 28.717C10.7253 28.6728 10.9582 28.6733 11.1845 28.7185C11.4107 28.7637 11.6257 28.8527 11.8173 28.9803C12.0089 29.108 12.1733 29.2719 12.3011 29.4626C13.2522 30.8861 15.7543 33.4061 27.6649 33.4061C39.5791 33.4061 42.0776 30.8861 43.0286 29.4626C43.2867 29.0774 43.6884 28.8098 44.1453 28.7185C44.6021 28.6273 45.0768 28.7199 45.4649 28.9761C45.853 29.2322 46.1226 29.6309 46.2146 30.0845C46.3065 30.538 46.2131 31.0092 45.9551 31.3944C44.9528 32.8832 43.4091 34.2776 40.5339 35.287ZM15.1544 18.8524C16.0469 17.9011 17.2577 17.3636 18.5198 17.3564C19.7818 17.3636 20.9926 17.9011 21.8852 18.8524C22.7741 19.8074 23.2752 21.0965 23.2752 22.44C23.2752 23.7835 22.7741 25.0726 21.8852 26.0276C20.9926 26.9789 19.7818 27.5163 18.5198 27.5236C17.8854 27.517 17.2592 27.3807 16.6802 27.1233C16.1012 26.8659 15.5818 26.4929 15.1544 26.0276C14.253 25.0478 13.7567 23.7668 13.7643 22.44C13.7643 21.0965 14.2654 19.8074 15.1544 18.8524ZM36.81 17.3564C35.5479 17.3636 34.3371 17.9011 33.4446 18.8524C32.5557 19.8074 32.0545 21.0965 32.0545 22.44C32.0545 23.7835 32.5557 25.0726 33.4446 26.0276C34.3371 26.9789 35.5479 27.5163 36.81 27.5236C38.072 27.5163 39.2828 26.9789 40.1754 26.0276C41.0643 25.0726 41.5654 23.7835 41.5654 22.44C41.5654 21.0965 41.0643 19.8074 40.1754 18.8524C39.7479 18.3871 39.2285 18.0141 38.6495 17.7567C38.0705 17.4993 37.4443 17.363 36.81 17.3564Z" fill="white"/>
</svg>
