<svg  viewBox="0 0 43 42" fill="none" xmlns="http://www.w3.org/2000/svg">
<path fill-rule="evenodd" clip-rule="evenodd" d="M12.9969 0.12375C15.1962 0.0225 15.8975 0 21.5 0C27.1025 0 27.8038 0.024375 30.0013 0.12375C32.1988 0.223125 33.6987 0.57375 35.0112 1.08188C36.3856 1.60125 37.6325 2.41312 38.6637 3.46312C39.7137 4.4925 40.5238 5.7375 41.0413 7.11375C41.5513 8.42625 41.9 9.92625 42.0013 12.12C42.1025 14.3231 42.125 15.0244 42.125 20.625C42.125 26.2275 42.1006 26.9287 42.0013 29.1281C41.9019 31.3219 41.5513 32.8219 41.0413 34.1344C40.5237 35.5108 39.7124 36.7579 38.6637 37.7887C37.6325 38.8387 36.3856 39.6488 35.0112 40.1663C33.6987 40.6763 32.1987 41.025 30.005 41.1263C27.8037 41.2275 27.1025 41.25 21.5 41.25C15.8975 41.25 15.1962 41.2256 12.9969 41.1263C10.8031 41.0269 9.30313 40.6763 7.99063 40.1663C6.61423 39.6487 5.36716 38.8374 4.33625 37.7887C3.28696 36.7588 2.47497 35.5123 1.95688 34.1362C1.44875 32.8237 1.1 31.3237 0.99875 29.13C0.8975 26.9269 0.875 26.2256 0.875 20.625C0.875 15.0225 0.899375 14.3212 0.99875 12.1237C1.09812 9.92625 1.44875 8.42625 1.95688 7.11375C2.47573 5.73765 3.28835 4.49121 4.33812 3.46125C5.36758 2.41219 6.61339 1.60021 7.98875 1.08188C9.30125 0.57375 10.8013 0.225 12.995 0.12375H12.9969ZM29.8344 3.83625C27.6594 3.73688 27.0069 3.71625 21.5 3.71625C15.9931 3.71625 15.3406 3.73688 13.1656 3.83625C11.1537 3.92812 10.0625 4.26375 9.335 4.54688C8.37313 4.92188 7.685 5.36625 6.96313 6.08813C6.27883 6.75385 5.75221 7.56428 5.42188 8.46C5.13875 9.1875 4.80312 10.2787 4.71125 12.2906C4.61188 14.4656 4.59125 15.1181 4.59125 20.625C4.59125 26.1319 4.61188 26.7844 4.71125 28.9594C4.80312 30.9712 5.13875 32.0625 5.42188 32.79C5.75187 33.6844 6.27875 34.4963 6.96313 35.1619C7.62875 35.8462 8.44063 36.3731 9.335 36.7031C10.0625 36.9863 11.1537 37.3219 13.1656 37.4137C15.3406 37.5131 15.9913 37.5337 21.5 37.5337C27.0087 37.5337 27.6594 37.5131 29.8344 37.4137C31.8462 37.3219 32.9375 36.9863 33.665 36.7031C34.6269 36.3281 35.315 35.8838 36.0369 35.1619C36.7212 34.4963 37.2481 33.6844 37.5781 32.79C37.8613 32.0625 38.1969 30.9712 38.2887 28.9594C38.3881 26.7844 38.4087 26.1319 38.4087 20.625C38.4087 15.1181 38.3881 14.4656 38.2887 12.2906C38.1969 10.2787 37.8613 9.1875 37.5781 8.46C37.2031 7.49813 36.7588 6.81 36.0369 6.08813C35.3711 5.40388 34.5607 4.87727 33.665 4.54688C32.9375 4.26375 31.8462 3.92812 29.8344 3.83625ZM18.8656 26.9831C20.3369 27.5956 21.9751 27.6782 23.5005 27.217C25.0259 26.7557 26.3439 25.7792 27.2293 24.4542C28.1147 23.1292 28.5126 21.5379 28.3551 19.9521C28.1976 18.3663 27.4944 16.8843 26.3656 15.7594C25.6461 15.0403 24.776 14.4896 23.8181 14.1472C22.8602 13.8047 21.8383 13.6788 20.8259 13.7787C19.8136 13.8785 18.8359 14.2016 17.9634 14.7246C17.0909 15.2477 16.3451 15.9576 15.7799 16.8035C15.2147 17.6493 14.8441 18.6099 14.6947 19.6162C14.5453 20.6224 14.6209 21.6493 14.916 22.6228C15.2111 23.5964 15.7184 24.4924 16.4014 25.2464C17.0843 26.0003 17.9259 26.5935 18.8656 26.9831ZM14.0037 13.1287C14.9882 12.1443 16.1568 11.3634 17.4431 10.8307C18.7293 10.2979 20.1078 10.0237 21.5 10.0237C22.8922 10.0237 24.2707 10.2979 25.5569 10.8307C26.8431 11.3634 28.0118 12.1443 28.9963 13.1287C29.9807 14.1132 30.7616 15.2818 31.2943 16.5681C31.8271 17.8543 32.1013 19.2328 32.1013 20.625C32.1013 22.0172 31.8271 23.3957 31.2943 24.6819C30.7616 25.9681 29.9807 27.1368 28.9963 28.1213C27.0081 30.1094 24.3116 31.2263 21.5 31.2263C18.6884 31.2263 15.9919 30.1094 14.0037 28.1213C12.0156 26.1331 10.8987 23.4366 10.8987 20.625C10.8987 17.8134 12.0156 15.1169 14.0037 13.1287ZM34.4525 11.6025C34.6964 11.3724 34.8917 11.0957 35.0268 10.7887C35.1619 10.4818 35.234 10.1508 35.2389 9.81549C35.2438 9.48017 35.1814 9.14728 35.0553 8.83652C34.9292 8.52576 34.7421 8.24346 34.5049 8.00632C34.2678 7.76919 33.9855 7.58205 33.6747 7.45597C33.364 7.3299 33.0311 7.26745 32.6958 7.27234C32.3604 7.27723 32.0295 7.34935 31.7225 7.48443C31.4156 7.61951 31.1389 7.8148 30.9087 8.05875C30.4612 8.53318 30.2162 9.16335 30.2257 9.81549C30.2352 10.4676 30.4985 11.0904 30.9597 11.5516C31.4209 12.0128 32.0436 12.2761 32.6958 12.2856C33.3479 12.2951 33.9781 12.05 34.4525 11.6025Z" fill="white"/>
</svg>
