<svg width="42" height="42" viewBox="0 0 42 42" fill="none" xmlns="http://www.w3.org/2000/svg">
<path d="M31.0624 22.9555V30.5806H26.6425V23.465C26.6425 21.6788 26.0031 20.4599 24.4026 20.4599C23.1816 20.4599 22.4536 21.2808 22.1339 22.0769C22.0184 22.3615 21.9874 22.7575 21.9874 23.1535V30.5806H17.5654C17.5654 30.5806 17.6253 18.5315 17.5654 17.2837H21.9874V19.1667L21.9586 19.21H21.9874V19.1688C22.5753 18.2613 23.623 16.9701 25.9722 16.9701C28.8803 16.9701 31.0624 18.8718 31.0624 22.9555ZM12.9393 10.8713C11.4274 10.8713 10.4374 11.8655 10.4374 13.169C10.4374 14.4477 11.3986 15.4687 12.8815 15.4687H12.9104C14.4531 15.4687 15.4122 14.4457 15.4122 13.169C15.3833 11.8655 14.4531 10.8713 12.9393 10.8713ZM10.6994 30.5806H15.1214V17.2837H10.6994V30.5806Z" fill="white"/>
<path d="M8.375 4.125C7.28098 4.125 6.23177 4.5596 5.45818 5.33318C4.6846 6.10677 4.25 7.15598 4.25 8.25V33C4.25 34.094 4.6846 35.1432 5.45818 35.9168C6.23177 36.6904 7.28098 37.125 8.375 37.125H33.125C34.219 37.125 35.2682 36.6904 36.0418 35.9168C36.8154 35.1432 37.25 34.094 37.25 33V8.25C37.25 7.15598 36.8154 6.10677 36.0418 5.33318C35.2682 4.5596 34.219 4.125 33.125 4.125H8.375ZM8.375 0H33.125C35.313 0 37.4115 0.869194 38.9586 2.41637C40.5058 3.96354 41.375 6.06196 41.375 8.25V33C41.375 35.188 40.5058 37.2865 38.9586 38.8336C37.4115 40.3808 35.313 41.25 33.125 41.25H8.375C6.18696 41.25 4.08854 40.3808 2.54137 38.8336C0.994194 37.2865 0.125 35.188 0.125 33V8.25C0.125 6.06196 0.994194 3.96354 2.54137 2.41637C4.08854 0.869194 6.18696 0 8.375 0V0Z" fill="white"/>
</svg>
