<svg width="46" height="42" viewBox="0 0 46 42" fill="none" xmlns="http://www.w3.org/2000/svg">
<path d="M44.4681 0.771571C44.0022 0.385399 43.4405 0.132498 42.8425 0.0396809C42.2445 -0.0531361 41.6325 0.0175902 41.0715 0.244362L2.35835 15.8727C1.73277 16.1297 1.20017 16.571 0.831252 17.1379C0.462338 17.7047 0.27456 18.3704 0.292845 19.0465C0.311131 19.7226 0.534615 20.3772 0.933631 20.9233C1.33265 21.4694 1.88832 21.8812 2.52689 22.1041L10.8801 25.0037L15.4068 39.9687C15.4154 39.999 15.4435 40.0184 15.4565 40.0465C15.5031 40.1659 15.5712 40.2757 15.6574 40.3706C15.7884 40.5169 15.9575 40.6239 16.1457 40.6796C16.1673 40.6882 16.1825 40.7077 16.2041 40.712H16.217L16.2235 40.7141C16.3907 40.7501 16.5644 40.7412 16.727 40.6882C16.7442 40.6839 16.7615 40.6839 16.781 40.6774C16.9371 40.6226 17.0783 40.5324 17.1937 40.4138C17.2066 40.3987 17.2282 40.3965 17.2412 40.3836L23.7514 33.1971L33.2519 40.5543C33.8289 41.0058 34.5397 41.25 35.2722 41.25C36.8581 41.25 38.2259 40.1394 38.5521 38.5902L45.6003 3.9802C45.7199 3.39265 45.6777 2.78367 45.4783 2.21821C45.2789 1.65275 44.9298 1.15201 44.4681 0.76941V0.771571ZM17.7684 27.8451L16.2408 35.2714L13.0538 24.7315L28.8593 16.4993L18.0623 27.2984C17.9128 27.4478 17.8106 27.6379 17.7684 27.8451V27.8451ZM36.4346 38.1559C36.3941 38.3518 36.3038 38.534 36.1725 38.685C36.0412 38.836 35.8733 38.9506 35.6849 39.018C35.5011 39.0887 35.302 39.1104 35.1073 39.0809C34.9125 39.0513 34.7288 38.9716 34.5743 38.8495L24.2829 30.8787C24.0678 30.7126 23.7979 30.6337 23.5272 30.6577C23.2565 30.6818 23.0048 30.8069 22.8223 31.0083L18.2913 36.0017L19.8168 28.597L35.35 13.0616C35.5319 12.8791 35.6426 12.6376 35.6621 12.3806C35.6815 12.1237 35.6085 11.8682 35.4562 11.6604C35.3039 11.4525 35.0824 11.306 34.8315 11.2471C34.5806 11.1883 34.317 11.2211 34.0881 11.3395L11.6969 23.0029L3.23343 20.0601C3.00903 19.986 2.81331 19.8438 2.67351 19.6532C2.53371 19.4627 2.45678 19.2333 2.45342 18.997C2.44266 18.7586 2.50635 18.5228 2.63567 18.3222C2.76498 18.1217 2.95351 17.9664 3.17509 17.8778L41.8818 2.24948C42.0801 2.16521 42.298 2.13796 42.511 2.17078C42.724 2.20361 42.9236 2.29522 43.0874 2.4353C43.2503 2.56708 43.3733 2.74153 43.4427 2.93917C43.5122 3.13681 43.5253 3.34987 43.4807 3.55454L36.4346 38.158V38.1559Z" fill="white"/>
</svg>
